<svg width="14" height="14" viewBox="0 0 14 14" fill="none" xmlns="http://www.w3.org/2000/svg">
<path d="M13.6962 6.37211C13.9718 6.10355 14.0691 5.7094 13.9502 5.343C13.8311 4.9766 13.5207 4.71504 13.1395 4.65954L9.74964 4.16699C9.60527 4.14596 9.48052 4.05541 9.41604 3.9245L7.90054 0.853131C7.73038 0.508036 7.385 0.293579 7.0001 0.293579C6.61548 0.293579 6.2701 0.508036 6.09994 0.853131L4.58416 3.92478C4.51968 4.05569 4.39465 4.14624 4.25028 4.16727L0.860453 4.65982C0.479475 4.71504 0.168863 4.97688 0.0497196 5.34328C-0.069143 5.70968 0.0281337 6.10383 0.303704 6.37239L2.75637 8.7631C2.86093 8.86514 2.90887 9.01204 2.8842 9.15557L2.30559 12.5314C2.25429 12.8285 2.33222 13.1176 2.52453 13.3455C2.82337 13.7007 3.34507 13.8089 3.76221 13.5897L6.79377 11.9957C6.92048 11.9292 7.08 11.9298 7.20643 11.9957L10.2383 13.5897C10.3857 13.6673 10.543 13.7066 10.7053 13.7066C11.0016 13.7066 11.2825 13.5748 11.4757 13.3455C11.6683 13.1176 11.7459 12.828 11.6946 12.5314L11.1157 9.15557C11.0911 9.01176 11.139 8.86514 11.2436 8.7631L13.6962 6.37211Z" fill="#E9CE93"/>
</svg>
